HIERARCHY
ROOT Hips
{
	OFFSET -3.958830 18.904000 13.208200
	CHANNELS 6 Xposition Yposition Zposition Zrotation Yrotation Xrotation 
	JOINT LHipJoint
	{
		OFFSET 0.000000 0.000000 0.000000
		CHANNELS 3 Zrotation Yrotation Xrotation
		JOINT LeftUpLeg
		{
			OFFSET 1.800000 -1.400000 0.085000
			CHANNELS 3 Zrotation Yrotation Xrotation
			JOINT LeftLeg
			{
				OFFSET 2.215000 -6.000000 0.000000
				CHANNELS 3 Zrotation Yrotation Xrotation
				JOINT LeftFoot
				{
					OFFSET 2.500000 -6.900000 0.000000
					CHANNELS 3 Zrotation Yrotation Xrotation
					JOINT LeftToeBase
					{
						OFFSET 0.200000 -0.500000 1.950000
						CHANNELS 3 Zrotation Yrotation Xrotation
						End Site
						{
							OFFSET 0.000000 0.000000 0.000000
						}
					}
				}
			}
		}
	}
	JOINT RHipJoint
	{
		OFFSET 0.000000 0.000000 0.000000
		CHANNELS 3 Zrotation Yrotation Xrotation
		JOINT RightUpLeg
		{
			OFFSET -1.800000 -1.400000 0.085000
			CHANNELS 3 Zrotation Yrotation Xrotation
			JOINT RightLeg
			{
				OFFSET -2.215000 -6.000000 0.000000
				CHANNELS 3 Zrotation Yrotation Xrotation
				JOINT RightFoot
				{
					OFFSET -2.500000 -6.900000 0.000000
					CHANNELS 3 Zrotation Yrotation Xrotation
					JOINT RightToeBase
					{
						OFFSET -0.200000 -0.500000 1.950000
						CHANNELS 3 Zrotation Yrotation Xrotation
						End Site
						{
							OFFSET 0.000000 0.000000 0.000000
						}
					}
				}
			}
		}
	}
	JOINT LowerBack
	{
		OFFSET 0.000000 0.000000 0.000000
		CHANNELS 3 Zrotation Yrotation Xrotation
		JOINT Spine
		{
			OFFSET -0.087000 1.940000 -0.288900
			CHANNELS 3 Zrotation Yrotation Xrotation
			JOINT Spine1
			{
				OFFSET 0.000000 1.950000 0.060000
				CHANNELS 3 Zrotation Yrotation Xrotation
				JOINT Neck
				{
					OFFSET 0.000000 0.000000 0.000000
					CHANNELS 3 Zrotation Yrotation Xrotation
					JOINT Neck1
					{
						OFFSET 0.000000 1.600000 0.340000
						CHANNELS 3 Zrotation Yrotation Xrotation
						JOINT Head
						{
							OFFSET 0.000000 1.667000 -0.240000
							CHANNELS 3 Zrotation Yrotation Xrotation
							End Site
							{
								OFFSET 0.000000 0.000000 0.000000
							}
						}
					}
				}
				JOINT LeftShoulder
				{
					OFFSET 0.000000 0.000000 0.000000
					CHANNELS 3 Zrotation Yrotation Xrotation
					JOINT LeftArm
					{
						OFFSET 2.700000 1.550000 -0.730000
						CHANNELS 3 Zrotation Yrotation Xrotation
						JOINT LeftForeArm
						{
							OFFSET 5.450000 0.000000 0.000000
							CHANNELS 3 Zrotation Yrotation Xrotation
							JOINT LeftHand
							{
								OFFSET 3.450000 0.000000 0.000000
								CHANNELS 3 Zrotation Yrotation Xrotation
								JOINT LeftHandIndex1
								{
									OFFSET 0.750000 0.000000 0.000000
									CHANNELS 3 Zrotation Yrotation Xrotation
									End Site
									{
										OFFSET 0.000000 0.000000 0.000000
									}
								}
							}
						}
					}
				}
				JOINT RightShoulder
				{
					OFFSET 0.000000 0.000000 0.000000
					CHANNELS 3 Zrotation Yrotation Xrotation
					JOINT RightArm
					{
						OFFSET -2.700000 1.550000 -0.730000
						CHANNELS 3 Zrotation Yrotation Xrotation
						JOINT RightForeArm
						{
							OFFSET -5.450000 0.000000 0.000000
							CHANNELS 3 Zrotation Yrotation Xrotation
							JOINT RightHand
							{
								OFFSET -3.450000 0.000000 0.000000
								CHANNELS 3 Zrotation Yrotation Xrotation
								JOINT RightHandIndex1
								{
									OFFSET -0.750000 0.000000 0.000000
									CHANNELS 3 Zrotation Yrotation Xrotation
									End Site
									{
										OFFSET 0.000000 0.000000 0.000000
									}
								}
							}
						}
					}
				}
			}
		}
	}
}
MOTION
Frames: 14
Frame Time: 0.016667
0.521920 16.809900 -2.369830 0.935368 11.465753 13.918038 -14.982949 12.844333 2.243193 -1.694094 -1.952637 -15.549070 6.000345 3.370539 29.081436 -0.774979 4.837780 2.894651 0.800630 0.685390 0.535500 18.589222 -10.195212 4.107010 -9.118493 6.419633 -39.686080 12.109005 -5.061342 15.173279 -0.016019 -2.916990 3.156815 0.685740 0.373300 0.403380 -4.531153 -0.749624 -7.346052 22.405614 -4.266919 9.091129 -1.009229 -5.282672 12.513045 0.890757 3.906644 -8.421309 5.642948 -4.014487 23.906094 -6.795770 -0.254220 -12.790380 11.056815 -27.515618 -0.867556 4.503945 -56.270861 9.353290 113.472734 -54.942630 -74.210249 -4.166776 2.090756 0.185760 0.451570 -0.062910 0.302740 -12.623942 22.722862 4.914971 15.429845 37.519990 10.275841 -108.493220 68.166037 -93.104718 1.647681 0.254939 -0.166490 0.276990 -0.173870 -0.138710 
0.525250 16.769180 -2.373640 0.917519 11.442958 13.613413 -14.970470 12.895692 2.179341 -1.388954 -1.576460 -14.360644 5.758277 3.467903 28.097771 -0.770492 4.775382 2.939584 0.783620 0.669760 0.509900 18.597705 -10.205591 4.122533 -9.245046 6.555799 -39.636115 12.257807 -5.154172 15.594229 -0.008644 -2.970972 3.154028 0.676570 0.400360 0.392730 -4.563711 -0.777853 -7.324062 23.027788 -4.361224 9.173866 -1.200938 -5.449571 12.595880 0.685980 3.516517 -8.283719 4.882646 -4.170899 24.268303 -6.528130 -0.851640 -12.224360 11.028327 -28.773233 -1.012329 3.685021 -57.804184 9.693083 109.755074 -56.155114 -70.498430 -4.144857 1.919884 0.168510 0.460390 -0.082280 0.311000 -12.236874 24.180998 4.794517 14.459320 38.246561 10.588710 -109.522632 68.785652 -95.706369 1.716111 0.136385 -0.170470 0.294760 -0.165360 -0.123330 
0.546440 16.676030 -2.392340 0.444933 11.588385 13.086986 -14.934047 12.933581 2.038764 -0.148501 -0.986131 -12.096997 4.693448 3.773375 25.676855 -0.834068 4.646268 3.006027 0.777410 0.646210 0.505040 18.639393 -10.184778 4.211560 -9.760908 7.047130 -40.183450 13.250088 -5.761244 17.500047 -0.048686 -3.237603 3.052943 0.673970 0.411970 0.387650 -4.676147 -0.774826 -7.298739 25.230050 -5.116260 9.327828 -2.332664 -6.222606 12.432236 0.596052 2.967116 -7.796681 3.723651 -4.008029 25.159026 -6.269800 -1.361750 -12.480490 11.096251 -31.930348 -1.695719 0.311452 -60.293446 10.612355 99.712461 -60.039991 -61.859308 -4.021562 1.517474 0.200070 0.454610 -0.087600 0.305420 -12.184653 27.291445 4.305812 14.510189 40.647827 11.743046 -109.387182 70.529300 -98.181235 1.784007 0.314563 -0.193260 0.320960 -0.143440 -0.134020 
0.569660 16.574650 -2.423460 0.490627 11.038127 12.980522 -14.919697 12.851228 1.956750 0.057524 -0.488788 -10.055848 3.676000 3.970924 23.186411 -0.910390 4.519938 3.066056 0.807660 0.676820 0.526580 18.696949 -10.029096 4.405226 -11.157254 7.829178 -42.410698 14.024359 -6.687579 21.092554 -0.134716 -3.704399 2.856695 0.712780 0.421630 0.387370 -4.756868 -0.768655 -7.328296 26.408137 -5.519926 9.698885 -2.958102 -6.808861 12.584123 0.458294 2.742197 -7.239308 3.255881 -3.545547 25.314487 -5.806470 -1.525970 -13.524510 10.844962 -34.785826 -2.363997 -2.857970 -63.417491 11.024070 88.063442 -61.845163 -51.305408 -4.013326 1.555866 0.231160 0.450170 -0.076380 0.306770 -11.619356 29.978027 3.765987 15.413003 42.918456 12.887905 -110.727376 69.954886 -100.108242 1.779229 -0.016911 -0.213750 0.365450 -0.134220 -0.143630 
0.585620 16.487200 -2.458190 0.738209 11.009475 13.025296 -14.940515 12.742783 1.882885 -0.149652 -0.293606 -9.377817 3.260922 4.127418 22.849241 -0.999436 4.559226 3.028899 0.905550 0.789320 0.619430 18.737155 -9.733249 4.683290 -14.091665 8.513557 -44.752544 16.820223 -8.120393 24.210537 -0.295381 -4.462663 2.533791 0.814430 0.384540 0.388980 -4.760611 -0.916894 -7.415280 26.452600 -6.180432 10.295172 -2.470978 -7.924958 12.964727 0.348632 2.842991 -6.856771 3.465001 -2.610779 24.790638 -6.139280 -0.705770 -15.114740 11.531547 -37.444416 -2.103545 -1.324502 -65.621493 8.946699 81.762217 -61.170948 -45.267503 -4.164787 1.811911 0.267360 0.441900 -0.038370 0.304730 -11.918371 32.291022 2.287172 16.742511 45.281290 13.971823 -113.664479 72.696157 -108.804807 1.827159 -0.677605 -0.228090 0.399770 -0.162170 -0.179310 
0.606910 16.437750 -2.496460 1.042978 10.689906 12.780176 -14.946249 12.620655 1.870710 -1.022816 -0.201012 -9.100916 3.426983 4.122160 23.481103 -1.075057 4.601779 2.949741 1.017590 0.919770 0.746400 18.770989 -9.575345 4.882165 -16.225776 8.792608 -46.331087 18.440615 -9.133905 26.281500 -0.451967 -4.976625 2.291562 0.899990 0.286600 0.415920 -4.779580 -0.882410 -7.557125 26.028914 -5.929929 11.595751 -0.521075 -8.421697 13.419322 0.327334 3.382050 -6.627929 4.505894 -2.322060 24.714041 -7.362780 0.314090 -17.808880 12.718120 -39.536254 -0.501393 8.456492 -67.447392 0.599198 78.595393 -58.171497 -40.598263 -4.304259 2.084840 0.331300 0.408980 0.051390 0.278290 -12.578614 33.770495 -0.242389 20.276469 44.962539 8.982356 -144.620314 81.689308 -149.277676 1.314876 -2.275192 -0.206500 0.398500 -0.194190 -0.230210 
0.635350 16.421790 -2.529110 1.513804 10.590433 12.589257 -15.038963 12.656302 1.913138 -1.965832 -0.348024 -9.523194 3.870328 4.049047 24.732546 -1.083069 4.703693 2.875985 1.066370 0.980430 0.838680 18.699945 -9.432929 4.861907 -17.071380 8.374742 -46.688924 18.585845 -9.460201 26.831576 -0.503204 -5.122533 2.206511 0.936440 0.223060 0.437450 -4.517907 -1.186692 -7.493191 25.438340 -6.656219 12.698812 0.520128 -9.682785 13.768992 0.187834 3.786099 -6.662415 5.193431 -1.603895 24.721882 -9.160630 1.854820 -18.680900 12.765516 -40.750422 0.996669 15.624309 -65.725383 -5.217352 79.603619 -57.472467 -40.088660 -4.399185 2.130823 0.347410 0.410330 0.104320 0.251590 -12.510531 33.508191 -2.388361 21.791189 49.595066 11.894459 -89.264181 87.825433 -92.760429 2.314637 5.145894 -0.190520 0.377480 -0.221810 -0.268670 
0.651030 16.422870 -2.562890 1.935734 10.927977 12.467323 -15.039725 12.684938 1.985432 -2.702032 -0.617952 -10.263525 4.618608 3.809894 26.079730 -1.092124 4.772854 2.819014 1.112460 1.022160 0.899790 18.689206 -9.475952 4.781517 -16.789340 7.868076 -46.586324 17.306085 -9.186241 26.724276 -0.500578 -4.975839 2.228084 0.957680 0.164320 0.461780 -4.503036 -1.249456 -7.498953 25.770259 -7.149165 13.581034 1.458413 -10.450110 13.957157 -0.114776 3.795489 -6.838301 5.205091 -1.496042 24.683585 -10.258300 2.404150 -19.455920 12.901199 -41.887370 1.294348 19.618977 -64.356914 -8.245316 81.258427 -57.480350 -40.658852 -4.411347 2.134122 0.376860 0.394490 0.148390 0.242550 -11.918524 34.488377 -2.639888 22.433494 50.361293 12.081699 -88.511493 89.159381 -95.742319 2.633913 4.854538 -0.173100 0.344110 -0.248190 -0.295540 
0.673830 16.448900 -2.584140 2.088807 11.364389 11.983988 -14.948726 12.642553 2.052115 -3.125143 -0.715783 -9.970639 4.843928 3.637318 26.186799 -1.044658 4.721774 2.845273 1.076860 0.990800 0.884580 18.744280 -9.742730 4.624042 -15.856962 7.169753 -45.525256 15.841736 -8.665899 25.761459 -0.448143 -4.671272 2.342259 0.915770 0.148130 0.446840 -4.733927 -0.849719 -7.536372 27.375289 -7.195769 14.306988 1.530874 -10.488663 13.470630 0.140154 4.010364 -6.826209 5.655999 -2.270254 25.403121 -10.679410 2.237860 -19.387890 13.177406 -44.484356 1.416849 20.954176 -63.278011 -9.797186 81.734432 -58.085868 -41.157192 -4.412094 2.122755 0.374670 0.376520 0.159360 0.237920 -11.993201 36.694128 -3.202112 24.994381 45.793179 2.301598 115.161281 80.203640 101.253765 1.777657 2.707813 -0.164610 0.333700 -0.253780 -0.286860 
0.689440 16.479120 -2.594010 2.300678 11.258196 12.019673 -14.904598 12.649292 2.135295 -3.290282 -0.811708 -9.517737 4.152254 3.642439 25.092962 -1.022922 4.602198 2.907384 1.054720 0.959860 0.877050 18.764665 -9.902299 4.480354 -14.573663 6.350953 -45.226629 13.918735 -8.248327 25.361910 -0.400155 -4.400706 2.451226 0.878060 0.147230 0.448820 -4.830477 -0.745873 -7.537742 28.514755 -7.815400 14.305946 0.930372 -10.807488 13.282699 0.103828 3.975212 -6.692456 5.439881 -2.852465 26.364860 -10.982120 1.999230 -19.190620 12.404062 -45.343313 -0.386098 14.834128 -62.411577 -6.205255 81.534429 -61.861463 -43.967411 -4.365233 1.991934 0.372950 0.370630 0.164590 0.240600 -11.076920 37.880509 -1.502471 26.374048 45.011289 1.044110 125.311442 79.192681 110.589116 1.490498 1.165420 -0.154110 0.326270 -0.256770 -0.278790 
0.706000 16.517290 -2.596960 2.527151 10.746347 12.273585 -14.875853 12.643347 2.209356 -3.417062 -0.767925 -8.831540 2.999009 3.768651 23.267594 -1.023822 4.432866 2.962167 1.034580 0.932460 0.883540 18.780249 -9.970086 4.402865 -13.985512 5.581393 -45.164538 13.331604 -8.028511 24.254740 -0.371231 -4.179051 2.520858 0.840890 0.110040 0.452070 -4.890142 -0.721505 -7.549743 29.455229 -8.315007 13.973228 0.040089 -10.900744 13.117469 0.383508 3.874285 -6.403062 5.031816 -3.132886 27.909589 -11.573790 2.025090 -19.700880 11.997611 -45.107228 -2.595268 4.000317 -61.771123 0.496838 81.230611 -64.953271 -47.139917 -4.308859 1.822186 0.390690 0.345450 0.185440 0.213710 -11.268701 38.213891 0.551615 28.329723 45.221477 1.415133 141.995560 80.186985 128.958752 1.218216 -0.262149 -0.138060 0.302190 -0.246430 -0.288570 
0.708700 16.549070 -2.592020 2.846307 10.247841 12.534215 -14.856999 12.661197 2.263427 -3.300605 -0.641785 -8.075265 1.708426 4.005119 21.590136 -1.011176 4.346447 3.010963 1.025770 0.916560 0.887220 18.787733 -10.034161 4.291777 -13.359607 4.955106 -44.790446 12.575439 -7.718096 23.205968 -0.339215 -3.968833 2.602521 0.821830 0.106260 0.453770 -4.923518 -0.733897 -7.513377 29.926848 -8.882106 13.515300 -1.057529 -11.294138 13.213131 0.587022 3.877250 -6.328072 4.856803 -2.445971 28.900887 -11.733420 2.799740 -19.536010 11.361337 -44.971425 -3.797557 -3.952939 -60.419201 5.415680 81.540400 -67.596175 -50.171023 -4.282998 1.654978 0.394500 0.344920 0.189490 0.217190 -11.118707 38.046298 2.018673 30.399362 45.807429 2.332321 152.843429 80.462827 139.977109 1.160463 -0.801352 -0.137130 0.289770 -0.256060 -0.291670 
0.706560 16.575050 -2.588970 3.218469 9.646490 12.836220 -14.846262 12.614197 2.284792 -3.023652 -0.525055 -7.638960 0.115428 4.376332 20.289873 -1.005020 4.339167 3.029486 1.058960 0.969390 0.912640 18.801304 -10.077436 4.214796 -13.118946 4.587249 -44.520234 12.065432 -7.307109 21.898580 -0.307111 -3.782889 2.667454 0.863580 0.121270 0.460910 -4.955015 -0.637919 -7.447225 29.978986 -8.902576 12.476901 -1.558798 -11.403346 14.021203 0.488429 4.137516 -6.158439 5.201052 -2.444669 28.823660 -12.136680 2.977270 -18.880430 11.819619 -43.193934 -5.516196 -8.692616 -60.547650 9.199629 79.179795 -68.918044 -50.289074 -4.220808 1.612917 0.349580 0.376510 0.185920 0.237860 -11.401329 36.503592 4.020828 32.149260 46.917314 6.164712 -167.087287 79.798857 -177.367339 1.129340 -1.976185 -0.126960 0.298080 -0.285310 -0.279540 
0.705890 16.591250 -2.584290 3.496705 9.525183 13.158648 -14.855579 12.605122 2.294866 -2.949430 -0.477174 -7.569258 -0.696525 4.519421 19.424727 -1.016639 4.328892 3.034587 1.072820 1.000800 0.908480 18.800979 -10.059275 4.149535 -13.263790 4.230957 -44.211983 12.092360 -7.127402 20.826560 -0.282431 -3.712510 2.688288 0.893570 0.141740 0.475670 -4.941934 -0.692872 -7.362650 30.041590 -9.293265 11.462912 -1.992914 -11.897141 14.702074 0.120691 4.356361 -6.140196 5.380586 -2.325651 28.624264 -12.333190 3.064220 -18.315150 13.599001 -41.116698 -7.424856 -13.360281 -60.501218 12.836463 78.550215 -68.907372 -50.886827 -4.232266 1.591875 0.311300 0.411780 0.170760 0.245650 -12.541336 34.798528 6.146527 34.344653 47.927363 10.897914 -137.878934 73.389733 -144.455129 1.308184 -2.279398 -0.118510 0.295570 -0.286080 -0.269930 
